<svg id="_01_align_center" data-name="01 align center" xmlns="http://www.w3.org/2000/svg" width="32" height="32" viewBox="0 0 32 32">
  <path id="Path_98447" data-name="Path 98447" d="M0,4V14.667H14.667V0H4A4,4,0,0,0,0,4Zm12,8H2.667V4A1.333,1.333,0,0,1,4,2.667h8Z"/>
  <path id="Path_98448" data-name="Path 98448" d="M0,23.667a4,4,0,0,0,4,4H14.667V13H0Zm2.667-8H12V25H4a1.333,1.333,0,0,1-1.333-1.333Z" transform="translate(0 4.333)"/>
  <path id="Path_98449" data-name="Path 98449" d="M13,13V27.667H23.667a4,4,0,0,0,4-4V13ZM25,23.667A1.333,1.333,0,0,1,23.667,25h-8V15.667H25Z" transform="translate(4.333 4.333)"/>
  <rect id="Rectangle_5578" data-name="Rectangle 5578" width="14" height="2" transform="translate(17 7)"/>
</svg>
