<svg xmlns="http://www.w3.org/2000/svg" width="32.518" height="32.492" viewBox="0 0 32.518 32.492">
  <g id="house-flood" transform="translate(0.009 -0.002)">
    <path id="Path_1" data-name="Path 1" d="M32.509,23.564a5.375,5.375,0,0,1-8.136-.019,5.344,5.344,0,0,1-8.124,0,5.344,5.344,0,0,1-8.124,0,5.375,5.375,0,0,1-8.136.019l2.043-1.782A2.708,2.708,0,0,0,6.773,20H9.481A2.708,2.708,0,1,0,14.9,20H17.6a2.708,2.708,0,1,0,5.416,0h2.708a2.708,2.708,0,0,0,4.739,1.782Z" transform="translate(0 7.078)"/>
    <g id="_01_align_center" data-name=" 01 align center" transform="translate(0.003 0.002)">
      <path id="Path_2" data-name="Path 2" d="M13.77,11.682A6.77,6.77,0,0,0,7,18.452v1.784H9.708V18.452a4.062,4.062,0,1,1,8.124,0v1.784h2.708V18.452a6.77,6.77,0,0,0-6.77-6.77Z" transform="translate(2.477 4.132)"/>
      <path id="Path_3" data-name="Path 3" d="M2.708,24.37V14.893L16.247,2.707,29.786,14.893V24.37h2.708V13.689L18.059.7a2.708,2.708,0,0,0-3.623,0L0,13.689V24.37Z" transform="translate(0 -0.002)"/>
    </g>
  </g>
</svg>
