<svg xmlns="http://www.w3.org/2000/svg" width="20.307" height="20.308" viewBox="0 0 20.307 20.308">
  <g id="Icon_feather-eye-off" data-name="Icon feather-eye-off" transform="translate(1.061 1.061)" opacity="0.7">
    <path id="Path_21679" data-name="Path 21679" d="M15.5,17.523a8.324,8.324,0,0,1-4.91,1.7c-5.787,0-9.093-6.613-9.093-6.613A15.252,15.252,0,0,1,5.683,7.7M8.857,6.2A7.539,7.539,0,0,1,10.593,6c5.787,0,9.093,6.613,9.093,6.613A15.293,15.293,0,0,1,17.9,15.25m-5.555-.885a2.48,2.48,0,1,1-3.5-3.5" transform="translate(-1.5 -3.52)" fill="none" stroke="#929292" stroke-linecap="round" stroke-linejoin="round" stroke-width="1.5"/>
    <path id="Path_21680" data-name="Path 21680" d="M1.5,1.5,19.686,19.686" transform="translate(-1.5 -1.5)" fill="none" stroke="#929292" stroke-linecap="round" stroke-linejoin="round" stroke-width="1.5"/>
  </g>
</svg>
