<svg id="Group_48246" data-name="Group 48246" xmlns="http://www.w3.org/2000/svg" xmlns:xlink="http://www.w3.org/1999/xlink" width="960" height="1080" viewBox="0 0 960 1080">
  <defs>
    <filter id="Path_98430" x="348.992" y="312" width="289.337" height="249.511" filterUnits="userSpaceOnUse">
      <feOffset dy="3" input="SourceAlpha"/>
      <feGaussianBlur stdDeviation="3" result="blur"/>
      <feFlood flood-opacity="0.161"/>
      <feComposite operator="in" in2="blur"/>
      <feComposite in="SourceGraphic"/>
    </filter>
    <filter id="Path_98431" x="370.436" y="357.986" width="228.068" height="211.671" filterUnits="userSpaceOnUse">
      <feOffset dy="3" input="SourceAlpha"/>
      <feGaussianBlur stdDeviation="3" result="blur-2"/>
      <feFlood flood-opacity="0.161"/>
      <feComposite operator="in" in2="blur-2"/>
      <feComposite in="SourceGraphic"/>
    </filter>
    <filter id="Path_98434" x="321.67" y="440.993" width="67.295" height="68.637" filterUnits="userSpaceOnUse">
      <feOffset dy="3" input="SourceAlpha"/>
      <feGaussianBlur stdDeviation="3" result="blur-3"/>
      <feFlood flood-opacity="0.161"/>
      <feComposite operator="in" in2="blur-3"/>
      <feComposite in="SourceGraphic"/>
    </filter>
    <linearGradient id="linear-gradient" x1="0.5" x2="0.5" y2="1" gradientUnits="objectBoundingBox">
      <stop offset="0" stop-color="#38494a"/>
      <stop offset="0.291" stop-color="#314347"/>
      <stop offset="1" stop-color="#243642"/>
    </linearGradient>
    <linearGradient id="linear-gradient-2" x1="0.5" x2="0.5" y2="1" gradientUnits="objectBoundingBox">
      <stop offset="0" stop-color="#2da4b6"/>
      <stop offset="0.314" stop-color="#2398ad"/>
      <stop offset="1" stop-color="#1c90a7"/>
    </linearGradient>
  </defs>
  <rect id="Rectangle_8" data-name="Rectangle 8" width="960" height="1080" fill="#d8f1ff"/>
  <g id="Group_48245" data-name="Group 48245" transform="translate(0 -9.545)">
    <g id="Group_18" data-name="Group 18" transform="translate(330.67 327.545)">
      <g id="Group_48190" data-name="Group 48190" transform="translate(0)">
        <g transform="matrix(1, 0, 0, 1, -330.67, -318)" filter="url(#Path_98430)">
          <path id="Path_98430-2" data-name="Path 98430" d="M-964.884-231.775s-7,17.029-9.768,28.981-1.2,19.258-1.2,19.258,12.779-32.477,31.372-51.845,44.2-25.4,44.2-25.4-19.955,13.231-29.694,25.4-9.262,23.29-9.262,23.29,36.725-49.5,90.424-39.027,71.633,69.913,91.519,80.639,30.545,8.411,30.545,8.411-10.318,110.6-123.066,130.149-142.1-75.7-142.1-75.7-10.5-32.777-4.107-67.013S-964.884-231.775-964.884-231.775Z" transform="translate(1356.08 578.79)" fill="#0f99b5"/>
        </g>
        <g transform="matrix(1, 0, 0, 1, -330.67, -318)" filter="url(#Path_98431)">
          <path id="Path_98431-2" data-name="Path 98431" d="M-987.89-153.7s23.045-32.954,60.163-57.131,78.1-28.092,78.1-28.092a219.742,219.742,0,0,1,23.479,22.011c11.667,12.746,14.784,21.938,22.653,28.257s19.655,6.927,19.655,6.927a145,145,0,0,1-15.124,1.419,71.076,71.076,0,0,1-12.234-.743s4.378,13.382,1.562,31.718-12.86,40.625-12.86,40.625l29.751,25.995s24.327,22.625,10.855,34.437-39.407-14.791-39.407-14.791l-28.028-27.242s-42.434,28.29-88.536,4.715S-987.89-153.7-987.89-153.7Z" transform="translate(1367.33 602.91)" fill="#1b2c3e"/>
        </g>
        <path id="Path_98432" data-name="Path 98432" d="M94.645,1.634s-.237-.092.722.226c27.861,9.12,49.754,36.723,49.754,68.913A72.56,72.56,0,0,1,0,70.772,88.522,88.522,0,0,1,1.228,59.8s22.59-22.723,42.09-35.625S94.645,1.634,94.645,1.634Z" transform="translate(65.361 49.711)" fill="#fcf9f8"/>
        <path id="Path_98433" data-name="Path 98433" d="M86.338,4.766a5.847,5.847,0,0,1,2.379,0c23.976,8.747,36.169,28.987,36.169,59.862,0,38.438-27.957,69.6-62.443,69.6S0,103.067,0,64.629a28.571,28.571,0,0,1,1.317-7.676s19.035-19.51,40.607-33.31A155.154,155.154,0,0,1,86.338,4.766Z" transform="translate(71.671 46.599)" fill="#e2e1df"/>
        <circle id="Ellipse_668" data-name="Ellipse 668" cx="28.393" cy="28.393" r="28.393" transform="translate(80.083 94.193)" fill="#18293d"/>
        <circle id="Ellipse_669" data-name="Ellipse 669" cx="10.516" cy="10.516" r="10.516" transform="translate(103.219 87.883)" fill="#f8faf9"/>
        <ellipse id="Ellipse_670" data-name="Ellipse 670" cx="28.393" cy="22.084" rx="28.393" ry="22.084" transform="translate(202.069 148.876)" fill="#fff"/>
        <g transform="matrix(1, 0, 0, 1, -330.67, -318)" filter="url(#Path_98434)">
          <path id="Path_98434-2" data-name="Path 98434" d="M-976.668-199.454a198.586,198.586,0,0,1,8.907,23.915,250.778,250.778,0,0,1,5.979,26.722l-49.295-8.053Z" transform="translate(1341.75 646.45)" fill="#fccc62"/>
        </g>
        <circle id="Ellipse_667" data-name="Ellipse 667" cx="27.342" cy="27.342" r="27.342" transform="translate(107.425 87.883)" fill="#fff" opacity="0.24"/>
      </g>
    </g>
    <g id="Group_2" data-name="Group 2" transform="translate(315.705 586.873)">
      <path id="Login" d="M1.728,6.5q0,11.671,5.931,18.272t17.889,6.6q11.862,0,17.793-6.649T49.272,6.5q0-11.671-5.931-18.272t-17.889-6.6q-11.958,0-17.841,6.6T1.728,6.5Zm14.445-.957q0-11.288,2.1-15.784a7.259,7.259,0,0,1,7.079-4.5q4.879,0,7.175,5.4t2.3,16.789q0,11.288-2.1,15.784a7.33,7.33,0,0,1-7.175,4.5q-4.879,0-7.127-5.357T16.173,5.541ZM50.8,6.5q0,11.671,5.931,18.272t17.889,6.6q11.862,0,17.793-6.649T98.347,6.5q0-11.671-5.931-18.272t-17.889-6.6q-11.958,0-17.841,6.6T50.8,6.5Zm14.445-.957q0-11.288,2.1-15.784a7.259,7.259,0,0,1,7.079-4.5q4.879,0,7.175,5.4T83.9,7.455q0,11.288-2.1,15.784a7.33,7.33,0,0,1-7.175,4.5q-4.879,0-7.127-5.357T65.248,5.541ZM117.384-39.42,98.825-34.637v2.679a8.549,8.549,0,0,1,2.822,1.1,3.74,3.74,0,0,1,1.531,1.961,10.234,10.234,0,0,1,.526,2.057,21.533,21.533,0,0,1,.1,2.344V20.847a21.213,21.213,0,0,1-.143,2.822,4.622,4.622,0,0,1-1.339,2.3,6.383,6.383,0,0,1-3.492,1.77v2.679h23.533V27.735a6.383,6.383,0,0,1-3.492-1.77,4.622,4.622,0,0,1-1.339-2.3,21.21,21.21,0,0,1-.143-2.822V-4.121A18.555,18.555,0,0,1,127.62-7.277q6.122,0,6.122,5.74V20.847q0,1.818-.1,2.822a5.72,5.72,0,0,1-.861,2.3,3.919,3.919,0,0,1-2.3,1.77v2.679H152.4V27.735a6.468,6.468,0,0,1-3.587-1.77,4.622,4.622,0,0,1-1.339-2.3,21.21,21.21,0,0,1-.143-2.822V-4.408q0-6.888-3.587-10.427t-10-3.54a16.242,16.242,0,0,0-8.466,2.248q-3.779,2.248-7.892,8.37Z" transform="translate(176.194 39.42)" fill="url(#linear-gradient)"/>
      <path id="Login-2" data-name="Login" d="M25.6,21.134a6.139,6.139,0,0,1-2.1,4.64,7.812,7.812,0,0,1-5.548,1.961A12.534,12.534,0,0,1,10.1,25.248q-3.253-2.487-5.644-8.418H1.782l.957,12.053A40,40,0,0,0,17.758,31.37a26.568,26.568,0,0,0,9.471-1.531,15.173,15.173,0,0,0,6.122-3.922,16.749,16.749,0,0,0,3.061-4.783,12.567,12.567,0,0,0,.957-4.687,14.846,14.846,0,0,0-2.392-8.514,16.084,16.084,0,0,0-5.835-5.357Q25.7.758,22.3-.725a22.79,22.79,0,0,1-5.788-3.54,6.291,6.291,0,0,1-2.392-4.927A4.832,4.832,0,0,1,16.036-13.3,8.592,8.592,0,0,1,21.3-14.739a11.551,11.551,0,0,1,7.079,2.631A13.108,13.108,0,0,1,33.064-4.79h2.679V-16.461A58.392,58.392,0,0,0,21.01-18.374a29.127,29.127,0,0,0-9.375,1.339A12.974,12.974,0,0,0,5.8-13.448,15.9,15.9,0,0,0,3.026-9a12.241,12.241,0,0,0-.861,4.5A13.087,13.087,0,0,0,4.556,3.389a16.745,16.745,0,0,0,5.883,5.118q3.492,1.818,6.936,3.4a21.527,21.527,0,0,1,5.835,3.826A7.155,7.155,0,0,1,25.6,21.134ZM81.947-.39a21.35,21.35,0,0,0-1.674-8.8,12.907,12.907,0,0,0-4.544-5.644,20.111,20.111,0,0,0-5.835-2.726,23.785,23.785,0,0,0-6.314-.813q-12.436,0-18.893,7.366a25.934,25.934,0,0,0-6.457,17.7q0,11.384,6.17,18.032T61.571,31.37q7.27,0,12.053-3.061a15.281,15.281,0,0,0,6.505-8.323V17.308a19,19,0,0,1-12.245,4.4q-7.079,0-10.906-4.353T52.77,5.637l28.6.1A35.313,35.313,0,0,0,81.947-.39ZM52.77,1.045q.67-15.784,9.758-15.784a6.364,6.364,0,0,1,5.309,2.726q2.057,2.726,2.057,7.892A27.276,27.276,0,0,1,69.607.089ZM126.621-.39a21.35,21.35,0,0,0-1.674-8.8,12.907,12.907,0,0,0-4.544-5.644,20.111,20.111,0,0,0-5.835-2.726,23.785,23.785,0,0,0-6.314-.813q-12.436,0-18.893,7.366A25.934,25.934,0,0,0,82.9,6.689q0,11.384,6.17,18.032t17.171,6.649q7.27,0,12.053-3.061a15.281,15.281,0,0,0,6.505-8.323V17.308a19,19,0,0,1-12.245,4.4q-7.079,0-10.906-4.353T97.444,5.637l28.6.1A35.313,35.313,0,0,0,126.621-.39ZM97.444,1.045q.67-15.784,9.758-15.784a6.364,6.364,0,0,1,5.309,2.726q2.057,2.726,2.057,7.892a27.276,27.276,0,0,1-.287,4.209ZM160.2-.39l6.027-5.644q7.27-6.7,13.3-8.705v-2.679H158.19v2.679q4.5,1.435,4.5,3.54a5.141,5.141,0,0,1-1.913,3.635l-15.5,14.923V-39.42l-18.558,4.783v2.679a8.548,8.548,0,0,1,2.822,1.1A3.74,3.74,0,0,1,131.07-28.9a10.236,10.236,0,0,1,.526,2.057,21.531,21.531,0,0,1,.1,2.344V20.847a21.21,21.21,0,0,1-.143,2.822,4.622,4.622,0,0,1-1.339,2.3,6.383,6.383,0,0,1-3.492,1.77v2.679H150.25V27.735a6.383,6.383,0,0,1-3.492-1.77,4.622,4.622,0,0,1-1.339-2.3,21.21,21.21,0,0,1-.144-2.822V13.673l4.113-3.826,13.2,20.567h18.845V27.735a19.708,19.708,0,0,1-4.927-2.822,18.752,18.752,0,0,1-3.683-4.64Z" transform="translate(-1.782 39.42)" fill="url(#linear-gradient-2)"/>
    </g>
  </g>
</svg>
