<svg xmlns="http://www.w3.org/2000/svg" xmlns:xlink="http://www.w3.org/1999/xlink" width="287.972" height="75.494" viewBox="0 0 287.972 75.494">
  <defs>
    <filter id="Path_98430" x="6.555" y="0" width="83.094" height="73.54" filterUnits="userSpaceOnUse">
      <feOffset dy="3" input="SourceAlpha"/>
      <feGaussianBlur stdDeviation="3" result="blur"/>
      <feFlood flood-opacity="0.161"/>
      <feComposite operator="in" in2="blur"/>
      <feComposite in="SourceGraphic"/>
    </filter>
    <filter id="Path_98431" x="11.699" y="11.032" width="68.396" height="64.462" filterUnits="userSpaceOnUse">
      <feOffset dy="3" input="SourceAlpha"/>
      <feGaussianBlur stdDeviation="3" result="blur-2"/>
      <feFlood flood-opacity="0.161"/>
      <feComposite operator="in" in2="blur-2"/>
      <feComposite in="SourceGraphic"/>
    </filter>
    <filter id="Path_98434" x="0" y="30.946" width="29.826" height="30.148" filterUnits="userSpaceOnUse">
      <feOffset dy="3" input="SourceAlpha"/>
      <feGaussianBlur stdDeviation="3" result="blur-3"/>
      <feFlood flood-opacity="0.161"/>
      <feComposite operator="in" in2="blur-3"/>
      <feComposite in="SourceGraphic"/>
    </filter>
    <linearGradient id="linear-gradient" x1="0.5" x2="0.5" y2="1" gradientUnits="objectBoundingBox">
      <stop offset="0" stop-color="#38494a"/>
      <stop offset="0.291" stop-color="#314347"/>
      <stop offset="1" stop-color="#243642"/>
    </linearGradient>
    <linearGradient id="linear-gradient-2" x1="0.5" x2="0.5" y2="1" gradientUnits="objectBoundingBox">
      <stop offset="0" stop-color="#2da4b6"/>
      <stop offset="0.314" stop-color="#2398ad"/>
      <stop offset="1" stop-color="#1c90a7"/>
    </linearGradient>
  </defs>
  <g id="Group_48248" data-name="Group 48248" transform="translate(-49.176 -32)">
    <g id="Group_48193" data-name="Group 48193" transform="translate(58.176 38)">
      <g id="Group_48190" data-name="Group 48190" transform="translate(0)">
        <g transform="matrix(1, 0, 0, 1, -9, -6)" filter="url(#Path_98430)">
          <path id="Path_98430-2" data-name="Path 98430" d="M-990.121-253.826a57,57,0,0,0-2.343,6.953,11.64,11.64,0,0,0-.288,4.62s3.066-7.791,7.526-12.438a24.1,24.1,0,0,1,10.6-6.095s-4.787,3.174-7.124,6.095a9.144,9.144,0,0,0-2.222,5.587s8.81-11.876,21.693-9.363,17.185,16.772,21.956,19.346,7.328,2.018,7.328,2.018-2.475,26.534-29.524,31.223-34.09-18.16-34.09-18.16a37,37,0,0,1-.985-16.077A27.509,27.509,0,0,1-990.121-253.826Z" transform="translate(1013.64 266.79)" fill="#0f99b5"/>
        </g>
        <g transform="matrix(1, 0, 0, 1, -9, -6)" filter="url(#Path_98431)">
          <path id="Path_98431-2" data-name="Path 98431" d="M-987.89-218.476a58.435,58.435,0,0,1,14.433-13.706,46.49,46.49,0,0,1,18.737-6.739,52.714,52.714,0,0,1,5.633,5.281c2.8,3.058,3.547,5.263,5.435,6.779a9.355,9.355,0,0,0,4.715,1.662,34.783,34.783,0,0,1-3.628.34,17.051,17.051,0,0,1-2.935-.178,17.95,17.95,0,0,1,.375,7.609,45.813,45.813,0,0,1-3.085,9.746l7.137,6.236s5.836,5.428,2.6,8.262-9.454-3.549-9.454-3.549l-6.724-6.535s-10.18,6.787-21.24,1.131A21.906,21.906,0,0,1-987.89-218.476Z" transform="translate(1008.59 255.95)" fill="#1b2c3e"/>
        </g>
        <path id="Path_98432" data-name="Path 98432" d="M22.706,1.624s-.057-.022.173.054A17.624,17.624,0,0,1,34.815,18.211,17.407,17.407,0,0,1,0,18.211a21.237,21.237,0,0,1,.295-2.631,79.758,79.758,0,0,1,10.1-8.546C15.07,3.938,22.706,1.624,22.706,1.624Z" transform="translate(15.68 10.694)" fill="#fcf9f8"/>
        <path id="Path_98433" data-name="Path 98433" d="M20.713,4.664a1.4,1.4,0,0,1,.571,0c5.752,2.1,8.677,6.954,8.677,14.361,0,9.221-6.707,16.7-14.98,16.7S0,28.246,0,19.025a6.854,6.854,0,0,1,.316-1.842,63.75,63.75,0,0,1,9.742-7.991A37.222,37.222,0,0,1,20.713,4.664Z" transform="translate(17.194 7.659)" fill="#e2e1df"/>
        <circle id="Ellipse_668" data-name="Ellipse 668" cx="6.812" cy="6.812" r="6.812" transform="translate(19.212 22.597)" fill="#18293d"/>
        <circle id="Ellipse_669" data-name="Ellipse 669" cx="2.523" cy="2.523" r="2.523" transform="translate(24.762 21.083)" fill="#f8faf9"/>
        <ellipse id="Ellipse_670" data-name="Ellipse 670" cx="6.812" cy="5.298" rx="6.812" ry="5.298" transform="translate(48.477 35.716)" fill="#fff"/>
        <g transform="matrix(1, 0, 0, 1, -9, -6)" filter="url(#Path_98434)">
          <path id="Path_98434-2" data-name="Path 98434" d="M-1002.822-199.454a47.642,47.642,0,0,1,2.137,5.737,60.171,60.171,0,0,1,1.434,6.411l-11.826-1.932Z" transform="translate(1020.08 236.4)" fill="#fccc62"/>
        </g>
        <circle id="Ellipse_667" data-name="Ellipse 667" cx="6.559" cy="6.559" r="6.559" transform="translate(25.771 21.083)" fill="#fff" opacity="0.24"/>
      </g>
    </g>
    <g id="Group_2" data-name="Group 2" transform="translate(158.853 48)">
      <path id="Login" d="M1.728-14.5q0,6.333,3.218,9.914t9.707,3.582q6.436,0,9.655-3.608T27.526-14.5q0-6.333-3.218-9.914T14.6-28Q8.113-28,4.92-24.419T1.728-14.5Zm7.838-.519q0-6.125,1.142-8.565a3.939,3.939,0,0,1,3.841-2.44q2.647,0,3.893,2.933t1.246,9.11q0,6.125-1.142,8.565a3.977,3.977,0,0,1-3.893,2.44q-2.647,0-3.867-2.907T9.566-15.024Zm18.79.519q0,6.333,3.218,9.914t9.707,3.582q6.436,0,9.655-3.608T54.154-14.5q0-6.333-3.218-9.914T41.229-28q-6.488,0-9.681,3.582T28.356-14.5Zm7.838-.519q0-6.125,1.142-8.565a3.939,3.939,0,0,1,3.841-2.44q2.647,0,3.893,2.933t1.246,9.11q0,6.125-1.142,8.565a3.977,3.977,0,0,1-3.893,2.44q-2.647,0-3.867-2.907T36.194-15.024Zm28.289-24.4-10.07,2.6v1.453a4.639,4.639,0,0,1,1.531.6,2.029,2.029,0,0,1,.831,1.064,5.553,5.553,0,0,1,.285,1.116,11.684,11.684,0,0,1,.052,1.272v24.6a11.51,11.51,0,0,1-.078,1.531,2.508,2.508,0,0,1-.727,1.246,3.463,3.463,0,0,1-1.895.96v1.453H67.183V-2.981a3.463,3.463,0,0,1-1.895-.96,2.508,2.508,0,0,1-.727-1.246,11.509,11.509,0,0,1-.078-1.531V-20.266a10.068,10.068,0,0,1,5.554-1.713q3.322,0,3.322,3.114V-6.719q0,.986-.052,1.531a3.1,3.1,0,0,1-.467,1.246,2.126,2.126,0,0,1-1.246.96v1.453H83.482V-2.981a3.509,3.509,0,0,1-1.947-.96,2.508,2.508,0,0,1-.727-1.246,11.509,11.509,0,0,1-.078-1.531v-13.7a7.61,7.61,0,0,0-1.947-5.658A7.39,7.39,0,0,0,73.36-28a8.813,8.813,0,0,0-4.594,1.22,14.782,14.782,0,0,0-4.282,4.542Z" transform="translate(94.813 39.42)" fill="url(#linear-gradient)"/>
      <path id="Login-2" data-name="Login" d="M14.707-6.563a3.331,3.331,0,0,1-1.142,2.517,4.239,4.239,0,0,1-3.011,1.064A6.8,6.8,0,0,1,6.3-4.331,10.622,10.622,0,0,1,3.235-8.9H1.782L2.3-2.358a21.7,21.7,0,0,0,8.149,1.35,14.416,14.416,0,0,0,5.139-.831,8.233,8.233,0,0,0,3.322-2.128,9.088,9.088,0,0,0,1.661-2.6,6.819,6.819,0,0,0,.519-2.543,8.056,8.056,0,0,0-1.3-4.62,8.728,8.728,0,0,0-3.166-2.907q-1.869-.986-3.711-1.791a12.366,12.366,0,0,1-3.14-1.921,3.414,3.414,0,0,1-1.3-2.673,2.622,2.622,0,0,1,1.038-2.232,4.662,4.662,0,0,1,2.855-.779A6.268,6.268,0,0,1,16.212-24.6a7.112,7.112,0,0,1,2.543,3.971h1.453v-6.333A31.684,31.684,0,0,0,12.215-28a15.8,15.8,0,0,0-5.087.727,7.04,7.04,0,0,0-3.166,1.947,8.626,8.626,0,0,0-1.505,2.414,6.642,6.642,0,0,0-.467,2.44,7.1,7.1,0,0,0,1.3,4.282A9.086,9.086,0,0,0,6.48-13.415q1.895.986,3.763,1.843A11.681,11.681,0,0,1,13.409-9.5,3.883,3.883,0,0,1,14.707-6.563ZM45.28-18.242a11.585,11.585,0,0,0-.908-4.775,7,7,0,0,0-2.466-3.063,10.913,10.913,0,0,0-3.166-1.479A12.906,12.906,0,0,0,35.314-28q-6.748,0-10.252,4a14.072,14.072,0,0,0-3.5,9.6q0,6.177,3.348,9.784t9.317,3.608a11.916,11.916,0,0,0,6.54-1.661,8.292,8.292,0,0,0,3.53-4.516V-8.639A10.309,10.309,0,0,1,37.65-6.251a7.46,7.46,0,0,1-5.917-2.362,10.122,10.122,0,0,1-2.284-6.359l15.52.052A19.161,19.161,0,0,0,45.28-18.242Zm-15.832.779q.363-8.565,5.295-8.565a3.453,3.453,0,0,1,2.881,1.479,7.019,7.019,0,0,1,1.116,4.282,14.8,14.8,0,0,1-.156,2.284Zm40.072-.779a11.585,11.585,0,0,0-.908-4.775,7,7,0,0,0-2.466-3.063,10.913,10.913,0,0,0-3.166-1.479A12.906,12.906,0,0,0,59.555-28Q52.807-28,49.3-24a14.072,14.072,0,0,0-3.5,9.6q0,6.177,3.348,9.784t9.317,3.608A11.916,11.916,0,0,0,65-2.67a8.292,8.292,0,0,0,3.53-4.516V-8.639A10.309,10.309,0,0,1,61.89-6.251a7.46,7.46,0,0,1-5.917-2.362,10.122,10.122,0,0,1-2.284-6.359l15.52.052A19.162,19.162,0,0,0,69.521-18.242Zm-15.832.779q.363-8.565,5.295-8.565a3.453,3.453,0,0,1,2.881,1.479,7.019,7.019,0,0,1,1.116,4.282,14.8,14.8,0,0,1-.156,2.284Zm34.051-.779L91.01-21.3a21.1,21.1,0,0,1,7.215-4.724v-1.453H86.65v1.453q2.44.779,2.44,1.921a2.79,2.79,0,0,1-1.038,1.972l-8.409,8.1V-39.42l-10.07,2.6v1.453a4.638,4.638,0,0,1,1.531.6,2.029,2.029,0,0,1,.831,1.064,5.554,5.554,0,0,1,.285,1.116,11.684,11.684,0,0,1,.052,1.272v24.6a11.509,11.509,0,0,1-.078,1.531,2.508,2.508,0,0,1-.727,1.246,3.463,3.463,0,0,1-1.895.96v1.453H82.342V-2.981a3.463,3.463,0,0,1-1.895-.96,2.508,2.508,0,0,1-.727-1.246,11.509,11.509,0,0,1-.078-1.531v-3.893l2.232-2.076,7.163,11.16H99.263V-2.981A10.694,10.694,0,0,1,96.59-4.513a10.175,10.175,0,0,1-2-2.517Z" transform="translate(-1.782 39.42)" fill="url(#linear-gradient-2)"/>
    </g>
  </g>
</svg>
