<svg xmlns="http://www.w3.org/2000/svg" width="33" height="33" viewBox="0 0 33 33">
  <path id="users" d="M10.313,17.875A6.188,6.188,0,1,1,16.5,11.688a6.188,6.188,0,0,1-6.187,6.188Zm0-9.625a3.438,3.438,0,1,0,3.438,3.438A3.437,3.437,0,0,0,10.313,8.25ZM20.625,31.625v-.687A10.313,10.313,0,0,0,0,30.938v.687a1.375,1.375,0,0,0,2.75,0v-.687a7.563,7.563,0,0,1,15.125,0v.688a1.375,1.375,0,0,0,2.75,0ZM33,24.75a9.625,9.625,0,0,0-16.042-7.173,1.375,1.375,0,1,0,1.834,2.049A6.875,6.875,0,0,1,30.25,24.75a1.375,1.375,0,0,0,2.75,0ZM24.063,12.375A6.188,6.188,0,1,1,30.25,6.188a6.188,6.188,0,0,1-6.187,6.188Zm0-9.625A3.438,3.438,0,1,0,27.5,6.188,3.437,3.437,0,0,0,24.063,2.75Z"/>
</svg>
