<svg xmlns="http://www.w3.org/2000/svg" width="20" height="24" viewBox="0 0 20 24">
  <g id="_01_align_center" data-name="01 align center" transform="translate(-2)">
    <path id="Path_98440" data-name="Path 98440" d="M22,4H17V2a2,2,0,0,0-2-2H9A2,2,0,0,0,7,2V4H2V6H4V21a3,3,0,0,0,3,3H17a3,3,0,0,0,3-3V6h2ZM9,2h6V4H9Zm9,19a1,1,0,0,1-1,1H7a1,1,0,0,1-1-1V6H18Z" fill="#fff"/>
    <rect id="Rectangle_45" data-name="Rectangle 45" width="2" height="8" transform="translate(9 10)" fill="#fff"/>
    <rect id="Rectangle_46" data-name="Rectangle 46" width="2" height="8" transform="translate(13 10)" fill="#fff"/>
  </g>
</svg>
